# xmcd CD database file
#
# Track frame offsets:
#	150
#	26468
#	60471
#	84157
#	110417
#	143774
#	181186
#	204825
#	237266
#	260441
#	283679
#	304706
#	316019
#
# Disc length: 4319 seconds
#
# Revision: 0
# Processed by: cddbd v1.5.2PL0 Copyright (c) Steve Scherf et al.
# Submitted via: CDex 1.51
#
DISCID=9f10dd0d
DTITLE=SaNa Band - Black Cat Blues
DYEAR=2004
DGENRE=Jazz
TTITLE0=Big Boss Man [Dixon, Smith]
TTITLE1=Do Your Thank [Isaac Hayes]
TTITLE2=Real Sad Story [Denise LaSalle]
TTITLE3=Black Cat Blues [Memphis Minnie]
TTITLE4=Pledging My Love [Johnny Ace]
TTITLE5=Red House [Jimi Hendrix]
TTITLE6=Man On Every Hand [S Foster, M Slim]
TTITLE7=Sugar Daddy [Sandra Foster]
TTITLE8=Liz and Lee's [Sandra Foster]
TTITLE9=Distant Loving [Sandra Foster]
TTITLE10=I Love You, You Know I Do [Sandra Foster]
TTITLE11=Mother Goose Blues [Teresa Stewart]
TTITLE12=Way Back Home [Jr Walker]
EXTD=YEAR: 2004
EXTT0=
EXTT1=
EXTT2=
EXTT3=
EXTT4=
EXTT5=
EXTT6=
EXTT7=
EXTT8=
EXTT9=
EXTT10=
EXTT11=
EXTT12=
PLAYORDER=
